<?xml version="1.0" encoding="UTF-8"?>
<svg width="20px" height="23px" viewBox="0 0 20 23" version="1.1" xmlns="http://www.w3.org/2000/svg" xmlns:xlink="http://www.w3.org/1999/xlink">
    <!-- Generator: Sketch 48.2 (47327) - http://www.bohemiancoding.com/sketch -->
    <title>lock - simple-line-icons</title>
    <desc>Created with Sketch.</desc>
    <defs></defs>
    <g id="3" stroke="none" stroke-width="1" fill="none" fill-rule="evenodd" transform="translate(-945.000000, -612.000000)">
        <g id="Web-App" transform="translate(259.000000, 167.000000)" fill="#000000">
            <g id="Input-text-" transform="translate(210.000000, 410.000000)">
                <g id="Password-lock-icon" transform="translate(476.000000, 35.000000)">
                    <path d="M16.3125,8.625 C17.1061238,8.625 17.7836886,8.90575891 18.3452148,9.46728516 C18.9067411,10.0288114 19.1875,10.7063762 19.1875,11.5 L19.1875,20.125 C19.1875,20.9186238 18.9067411,21.5961886 18.3452148,22.1577148 C17.7836886,22.7192411 17.1061238,23 16.3125,23 L3.375,23 C2.58137624,23 1.9038114,22.7192411 1.34228516,22.1577148 C0.780758911,21.5961886 0.5,20.9186238 0.5,20.125 L0.5,11.5 C0.5,10.7063762 0.780758911,10.0288114 1.34228516,9.46728516 C1.9038114,8.90575891 2.58137624,8.625 3.375,8.625 L4.09375,8.625 L4.09375,5.88476562 C4.09375,5.07616783 4.23225773,4.31250359 4.50927734,3.59375 C4.78629696,2.87499641 5.17561598,2.2498399 5.67724609,1.71826172 C6.17887621,1.18668354 6.781572,0.767416899 7.48535156,0.460449219 C8.18913112,0.153481538 8.96776917,0 9.82128906,0 C10.6598349,0 11.4347295,0.153481538 12.1459961,0.460449219 C12.8572627,0.767416899 13.4674454,1.18294009 13.9765625,1.70703125 C14.4856796,2.23112241 14.8824856,2.85253547 15.1669922,3.57128906 C15.4514988,4.29004266 15.59375,5.0611938 15.59375,5.88476562 L15.59375,8.625 L16.3125,8.625 Z M5.53125,5.88476562 L5.53125,8.625 L14.15625,8.625 L14.15625,5.88476562 C14.15625,4.64192087 13.7557006,3.59001082 12.9545898,2.72900391 C12.1534791,1.867997 11.1090559,1.4375 9.82128906,1.4375 C8.51854817,1.4375 7.47786848,1.87174045 6.69921875,2.74023438 C5.92056902,3.6087283 5.53125,4.6568949 5.53125,5.88476562 Z M17.75,20.125 L17.75,11.5 C17.75,11.1106751 17.6077488,10.7737644 17.3232422,10.4892578 C17.0387356,10.2047512 16.7018249,10.0625 16.3125,10.0625 L3.375,10.0625 C2.98567514,10.0625 2.64876444,10.2047512 2.36425781,10.4892578 C2.07975118,10.7737644 1.9375,11.1106751 1.9375,11.5 L1.9375,20.125 C1.9375,20.5143249 2.07975118,20.8512356 2.36425781,21.1357422 C2.64876444,21.4202488 2.98567514,21.5625 3.375,21.5625 L16.3125,21.5625 C16.7018249,21.5625 17.0387356,21.4202488 17.3232422,21.1357422 C17.6077488,20.8512356 17.75,20.5143249 17.75,20.125 Z M9.84375,12.9375 C10.2480489,12.9375 10.588703,13.0760077 10.8657227,13.3530273 C11.1427423,13.630047 11.28125,13.9707011 11.28125,14.375 C11.28125,14.6445326 11.2138679,14.887857 11.0791016,15.1049805 C10.9443353,15.322104 10.7721365,15.4905593 10.5625,15.6103516 L10.5625,17.96875 C10.5625,18.1634124 10.4913744,18.3318678 10.3491211,18.4741211 C10.2068678,18.6163744 10.0384124,18.6875 9.84375,18.6875 C9.64908757,18.6875 9.48063222,18.6163744 9.33837891,18.4741211 C9.19612559,18.3318678 9.125,18.1634124 9.125,17.96875 L9.125,15.6103516 C8.91536354,15.4905593 8.74316474,15.322104 8.60839844,15.1049805 C8.47363214,14.887857 8.40625,14.6445326 8.40625,14.375 C8.40625,13.9707011 8.54475773,13.630047 8.82177734,13.3530273 C9.09879696,13.0760077 9.4394511,12.9375 9.84375,12.9375 Z" id="lock---simple-line-icons"></path>
                </g>
            </g>
        </g>
    </g>
</svg>