<svg width="56" height="51" viewBox="0 0 56 51" xmlns="http://www.w3.org/2000/svg"><title>piggy-bank</title><path d="M3.322 23.953c.683 0 1.236.617 1.236 1.38 0 .761-.553 1.379-1.236 1.379-.683 0-1.237-.618-1.237-1.38 0-.762.554-1.38 1.237-1.38m39.264-1.46c.87 0 1.574.69 1.574 1.542 0 .852-.705 1.543-1.574 1.543-.87 0-1.574-.691-1.574-1.543s.705-1.543 1.574-1.543M28.39 15.028c1.08.002 2.148.08 3.196.23l-.14 2.605a21.75 21.75 0 0 0-6.806.123c-2.319.397-4.493 1.122-6.463 2.156l-.994-2.411c2.146-1.124 4.505-1.912 7.014-2.343 1.4-.244 2.806-.364 4.193-.36m15.104-2.1c-2.4-.021-4.532.593-6.218 1.815C34.57 13.851 31.7 13.4 28.73 13.4c-8.798 0-16.395 4.052-19.876 9.877-.932-.665-1.967-1.104-3.03-1.278-.717-.969-1.794-1.735-3.13-2.189-.65-.221-1.371.085-1.613.682-.24.597.093 1.26.742 1.48.284.097.533.208.756.33-1.224.466-2.122 1.314-2.43 2.339-.406 1.349.025 2.602 1.152 3.353.593.395 1.31.594 2.025.594.647 0 1.29-.163 1.833-.494 1.093-.662 1.707-1.91 1.656-3.319.334.184.651.428.957.698a13.502 13.502 0 0 0-.945 4.94c0 4.399 2.126 8.535 6.001 11.707-.082 1.947-.094 6.185 1.222 7.68C14.97 50.844 16.885 51 17.947 51c.672 0 2.95-.08 4.072-1.11.63-.577.96-1.861 1.133-3.022 2.739.56 5.602.705 8.466.41.205.95.522 2.009.974 2.522.918 1.044 2.851 1.2 3.922 1.2.853 0 2.952-.108 4.045-1.109 1.16-1.064 1.318-4.033 1.3-5.816 1.756-.94 3.182-2.215 3.867-2.88 5.218-.162 6.43-2.548 6.554-2.827.126-.284.124-.6-.005-.883a1.205 1.205 0 0 0-.686-.62 2.912 2.912 0 0 1-1.1-.722c3.484-.142 4.253-1.014 4.52-1.318 1.407-1.596 1.368-6.893-.454-8.273-.775-.586-1.762-.665-2.624-.665l-.853.01c-.613 0-.781-.058-.826-.083-.449-.358-.724-.92-1.106-1.697-.61-1.245-1.429-2.916-3.588-4.663.301-1.538 1.069-2.803 2.433-4.037a1.09 1.09 0 0 0 .335-1.104c-.11-.396-.44-.71-.869-.824-1.377-.364-2.706-.55-3.963-.56M22.95 0c-3.545 0-6.417 2.797-6.417 6.246 0 3.449 2.872 6.245 6.417 6.245 3.543 0 6.416-2.796 6.416-6.245C29.367 2.796 26.493 0 22.95 0" fill="#00AFB0" fill-rule="evenodd"/></svg>