<svg width="86" height="32" viewBox="0 0 86 32" xmlns="http://www.w3.org/2000/svg"><title>rideshare-car</title><g fill="#00AFB0" fill-rule="evenodd"><circle cx="50.5" cy="8.5" r="2.5"/><path d="M85.452 19.08c-.3-1.057-.937-2.476-2.244-3.367-6.012-3.603-13.937-4.533-14.93-4.629-.994-.097-2.586-.332-2.586-.332s-8.32-6.814-16.213-9.387C41.59-1.209 25.343.621 23.943.76c-3.319.311-12.346 7.366-12.346 7.366s-9.852 1.88-10.61 2.592c-.757.711-1.01 4.187-.985 7.42.025 3.232.57 7.67.57 7.67 1.285.083 8.194.52 8.194.52a9.115 9.115 0 0 1-.086-1.184c0-4.777 3.67-8.651 8.197-8.651 4.527 0 8.196 4.001 8.196 8.777 0 .896-.128 1.737-.367 2.692H61.94c-.24-.955-.367-1.8-.367-2.692 0-4.776 3.669-8.713 8.197-8.713 4.526 0 8.196 3.842 8.196 8.619 0 .756-.1 1.466-.273 2.166 1.634.074 7.623.307 8.085-.026.535-.386-.023-7.177-.325-8.236zm-61.707-8.82s-.094-5.272 1.252-6.572c1.348-1.3 10.113-.966 10.535-1 .423-.032.82.457.852.92.032.465.491 7.448.491 7.448l-13.13-.795zM55.518 11.7l-15.28-.402s-1.47-7.755-1.531-8.068c-.062-.315.213-.538.68-.54.468 0 6.7.595 9.892 1.798 4.342 1.636 8.138 4.684 8.138 4.684L55.518 11.7zm14.307 6.303c-3.788 0-6.87 3.14-6.87 6.999 0 3.858 3.082 6.999 6.87 6.999 3.788 0 6.87-3.14 6.87-6.999 0-3.858-3.082-6.999-6.87-6.999zm0 10.401c-1.843 0-3.342-1.526-3.342-3.404 0-1.877 1.499-3.406 3.342-3.406 1.844 0 3.343 1.529 3.343 3.406 0 1.878-1.5 3.404-3.343 3.404zM16.882 18.002c-3.788 0-6.87 3.14-6.87 6.999 0 3.858 3.082 6.999 6.87 6.999 3.788 0 6.872-3.14 6.872-6.999 0-3.858-3.084-6.999-6.872-6.999zm0 10.401c-1.844 0-3.342-1.526-3.342-3.404 0-1.877 1.498-3.406 3.342-3.406 1.843 0 3.342 1.529 3.342 3.406 0 1.878-1.498 3.404-3.342 3.404z" fill-rule="nonzero"/></g></svg>