<svg xmlns="http://www.w3.org/2000/svg" xmlns:xlink="http://www.w3.org/1999/xlink" viewBox="0 0 471.77 78.29"><defs><linearGradient id="linear-gradient" x1="45.25" x2="45.25" y2="65.95" gradientUnits="userSpaceOnUse"><stop offset="0" stop-color="#d700d0"/><stop offset="1" stop-color="#0012b9"/></linearGradient><linearGradient id="linear-gradient-2" x1="27.83" y1="12.34" x2="27.83" y2="78.29" xlink:href="#linear-gradient"/></defs><title>ride-receipts</title><g id="Layer_2" data-name="Layer 2"><g id="Layer_1-2" data-name="Layer 1"><path d="M91.46,14.91c0-3.19,1.8-5.19,5.13-5.19h11.72c10.25,0,16.57,4.59,16.57,15,0,7.33-5.52,11.52-12.31,12.59l11.32,12.11a4.33,4.33,0,0,1,1.33,2.93,5.1,5.1,0,0,1-5,5.13,5.18,5.18,0,0,1-3.86-1.73L101.58,37.88h-.13V52.32c0,3.33-2.13,5.2-5,5.2s-5-1.87-5-5.2Zm10,15.78h6.86c3.66,0,6.19-2.2,6.19-5.93S112,18.9,108.31,18.9h-6.86Z"/><path d="M138.26,12.18a5.48,5.48,0,0,1-5.39,5.53,5.62,5.62,0,0,1-5.39-5.53,5.39,5.39,0,0,1,10.78,0ZM128.08,26.63c0-3.2,2-5.33,4.79-5.33s4.79,2.13,4.79,5.33V52.19c0,3.2-2,5.33-4.79,5.33s-4.79-2.13-4.79-5.33Z"/><path d="M175.74,52.19c0,3.2-2,5.33-4.79,5.33s-4.2-1.47-4.79-4c-1.8,2.93-5.53,4.4-8.79,4.4-9.66,0-15.78-9-15.78-18,0-9.32,5.13-19,15.44-19a13.89,13.89,0,0,1,9.13,3.33v-13c0-3.19,2-5.32,4.79-5.32s4.79,2.13,4.79,5.32Zm-17.11-22.5c-5,0-7.45,5.26-7.45,9.79s2.46,9.65,7.45,9.65c5.26,0,7.53-5.33,7.53-10S163.76,29.69,158.63,29.69Z"/><path d="M188.92,42.6c.67,4.73,4.59,6.93,9.05,6.93,4.93,0,8.33-3.86,10.86-3.86a4.25,4.25,0,0,1,3.92,4.13c0,4.12-8.52,8.12-15.64,8.12-10.79,0-18-7.86-18-18.44,0-9.72,7.06-18.58,17.18-18.58,10.39,0,17.24,9.46,17.24,17.44,0,2.87-1.26,4.26-4.19,4.26ZM204,36.21c-.54-4.19-3.2-7.32-7.66-7.32-4.26,0-7.12,3.26-7.59,7.32Z"/><path d="M235.05,14.91c0-3.19,1.8-5.19,5.13-5.19h11.71c10.26,0,16.58,4.59,16.58,15,0,7.33-5.52,11.52-12.32,12.59l11.32,12.11a4.33,4.33,0,0,1,1.33,2.93,5,5,0,0,1-8.85,3.4L245.17,37.88H245V52.32c0,3.33-2.13,5.2-5,5.2s-5-1.87-5-5.2Zm10,15.78h6.85c3.67,0,6.2-2.2,6.2-5.93s-2.53-5.86-6.2-5.86H245Z"/><path d="M279.52,42.6c.67,4.73,4.59,6.93,9.05,6.93,4.93,0,8.33-3.86,10.86-3.86a4.25,4.25,0,0,1,3.92,4.13c0,4.12-8.52,8.12-15.64,8.12-10.79,0-18-7.86-18-18.44,0-9.72,7.06-18.58,17.18-18.58,10.39,0,17.24,9.46,17.24,17.44,0,2.87-1.26,4.26-4.19,4.26Zm15.05-6.39c-.54-4.19-3.2-7.32-7.66-7.32-4.26,0-7.12,3.26-7.59,7.32Z"/><path d="M331.38,31.55c-2.4,0-4.53-1.86-7.59-1.86-5.46,0-8.06,4.86-8.06,9.79,0,4.72,2.87,9.65,8.06,9.65,2.39,0,6-2,7.12-2a4.2,4.2,0,0,1,4.13,4.2c0,4.92-8.26,6.59-11.72,6.59-10.32,0-17.17-8.46-17.17-18.44,0-9.72,7.05-18.58,17.17-18.58,3.8,0,11.72,1.4,11.72,6.06C335,29,333.64,31.55,331.38,31.55Z"/><path d="M346.09,42.6c.66,4.73,4.59,6.93,9.05,6.93,4.93,0,8.32-3.86,10.85-3.86a4.25,4.25,0,0,1,3.93,4.13c0,4.12-8.52,8.12-15.64,8.12-10.79,0-18-7.86-18-18.44,0-9.72,7.06-18.58,17.18-18.58,10.38,0,17.24,9.46,17.24,17.44,0,2.87-1.26,4.26-4.19,4.26Zm15-6.39c-.53-4.19-3.19-7.32-7.65-7.32-4.26,0-7.13,3.26-7.59,7.32Z"/><path d="M384.17,12.18a5.49,5.49,0,0,1-5.4,5.53,5.62,5.62,0,0,1-5.39-5.53,5.4,5.4,0,0,1,10.79,0ZM374,26.63c0-3.2,2-5.33,4.79-5.33s4.8,2.13,4.8,5.33V52.19c0,3.2-2,5.33-4.8,5.33S374,55.39,374,52.19Z"/><path d="M388.89,26.63c0-3.2,2-5.33,4.79-5.33s4.2,1.47,4.8,4c1.79-2.93,5.52-4.4,9.12-4.4,10.32,0,15.44,9.66,15.44,19,0,9-6.12,18-15.78,18a13.65,13.65,0,0,1-8.78-3.33V66.31c0,3.19-2,5.32-4.8,5.32s-4.79-2.13-4.79-5.32ZM406,49.13c5,0,7.46-5.19,7.46-9.65S411,29.69,406,29.69s-7.52,4.79-7.52,9.45S400.74,49.13,406,49.13Z"/><path d="M429.43,30.09H427.3a3.89,3.89,0,0,1-4.2-4.2,4.1,4.1,0,0,1,4.2-4.19h2.13V16c0-3.2,2-5.33,4.79-5.33S439,12.78,439,16V21.7h2.73c2.46,0,4.59,1.13,4.59,4.19s-2.13,4.2-4.59,4.2H439v22.1c0,3.2-2,5.33-4.8,5.33s-4.79-2.13-4.79-5.33Z"/><path d="M467,32.09c-1.8,0-5.46-2.8-8.59-2.8-1.73,0-3.26.8-3.26,2.66,0,4.46,16.64,3.8,16.64,14.72,0,6.39-5.39,11.25-13.65,11.25-5.39,0-13.38-3.07-13.38-7.39,0-1.47,1.46-4.26,4.13-4.26,3.73,0,5.39,3.26,9.92,3.26,2.93,0,3.79-.93,3.79-2.73,0-4.39-16.64-3.73-16.64-14.71,0-6.66,5.39-11.19,13-11.19,4.73,0,12,2.2,12,6.93A4.14,4.14,0,0,1,467,32.09Z"/><polygon points="20.92 60.45 32.57 54.98 44.92 60.45 57.12 54.98 69.58 60.45 69.58 3.5 20.92 3.5 20.92 60.45" style="fill:#fff"/><path d="M17.42,66V0H73.08V65.8l-15.95-7L44.92,64.28l-12.3-5.45ZM32.53,51.14l12.38,5.48L57.1,51.16l9,3.93V7H24.42V54.94Z" style="fill:url(#linear-gradient)"/><polygon points="3.5 72.79 15.16 67.32 27.5 72.79 39.7 67.32 52.17 72.79 52.17 15.84 3.5 15.84 3.5 72.79" style="fill:#fff"/><path d="M0,78.29V12.34H55.67v65.8l-16-7L27.51,76.62,15.2,71.17ZM15.12,63.48,27.49,69l12.2-5.47,9,3.94V19.34H7V67.28Z" style="fill:url(#linear-gradient-2)"/><path d="M41,36.67H14.64a3.5,3.5,0,0,1,0-7H41a3.5,3.5,0,0,1,0,7Z" style="fill:#a106c8"/><path d="M41,51.67H14.64a3.5,3.5,0,0,1,0-7H41a3.5,3.5,0,0,1,0,7Z" style="fill:#6b09c4"/></g></g></svg>