<?xml version="1.0" encoding="utf-8"?>
<!-- Generator: Adobe Illustrator 22.1.0, SVG Export Plug-In . SVG Version: 6.00 Build 0)  -->
<svg version="1.1" id="Layer_1" xmlns="http://www.w3.org/2000/svg" xmlns:xlink="http://www.w3.org/1999/xlink" x="0px" y="0px"
	 viewBox="0 0 363.5 62" style="enable-background:new 0 0 363.5 62;" xml:space="preserve">
<style type="text/css">
	.st0{fill:#FFFFFF;}
	.st1{fill:url(#Shape_18_);}
	.st2{fill:url(#Shape_19_);}
	.st3{fill:#007C7D;}
	.st4{fill:#005455;}
</style>
<title>ride-receipts-logo</title>
<desc>Created with Sketch.</desc>
<g id="Desktop-HD---HOME" transform="translate(-442.000000, 0.000000)">
	<g id="Panel-1" transform="translate(134.000000, 72.000000)">
		<g id="ride-receipts-logo" transform="translate(408.000000, 0.000000)">
			<g id="ride-receipts">
				<g id="ride-receipts-pro" transform="translate(70.000000, 5.000000)">
					<path id="Shape" d="M-98.3-64.5c0-2.4,1.4-4,3.9-4h8.9c7.9,0,12.7,3.5,12.7,11.4c0,5.6-4.2,8.8-9.4,9.6l8.6,9.2
						c0.7,0.8,1,1.5,1,2.2c0,2-1.6,3.9-3.8,3.9c-0.9,0-2.1-0.4-3-1.3L-90.6-47h-0.1v11c0,2.5-1.6,4-3.8,4s-3.8-1.4-3.8-4V-64.5
						L-98.3-64.5z M-90.6-52.4h5.3c2.8,0,4.7-1.7,4.7-4.5c0-2.9-1.9-4.5-4.7-4.5h-5.3V-52.4z"/>
					<path id="Shape_1_" d="M-62.5-66.5c0,2.3-1.8,4.2-4.1,4.2c-2.2,0-4.1-2-4.1-4.2c0-2.1,1.9-4,4.1-4
						C-64.4-70.5-62.5-68.7-62.5-66.5z M-70.3-55.6c0-2.4,1.5-4,3.7-4s3.7,1.6,3.7,4v19.5c0,2.4-1.5,4-3.7,4s-3.7-1.6-3.7-4V-55.6z"
						/>
					<path id="Shape_2_" d="M-34-36.1c0,2.4-1.5,4-3.7,4c-2.1,0-3.2-1.1-3.7-3c-1.4,2.2-4.2,3.3-6.7,3.3c-7.4,0-12.1-6.9-12.1-13.7
						c0-7.1,3.9-14.5,11.8-14.5c2.5,0,5,0.8,7,2.5v-9.8c0-2.4,1.5-4,3.7-4c2.1,0,3.7,1.6,3.7,4L-34-36.1L-34-36.1z M-47-53.2
						c-3.8,0-5.7,4-5.7,7.5s1.9,7.4,5.7,7.4c4,0,5.7-4,5.7-7.6C-41.3-49.5-43-53.2-47-53.2z"/>
					<path id="Shape_3_" d="M-23.9-43.4c0.5,3.6,3.5,5.3,7,5.3c3.7,0,6.3-3,8.3-3c1.6,0,3,1.6,3,3.1c0,3.1-6.5,6.2-11.9,6.2
						c-8.2,0-13.7-6-13.7-14c0-7.4,5.4-14.2,13.1-14.2C-10.2-60-5-52.8-5-46.8c0,2.2-1,3.3-3.2,3.3L-23.9-43.4L-23.9-43.4z
						 M-12.3-48.3c-0.4-3.2-2.4-5.6-5.9-5.6c-3.3,0-5.4,2.5-5.8,5.6H-12.3z"/>
					<path id="Shape_4_" d="M11.4-64.5c0-2.4,1.4-4,3.9-4h8.9c7.9,0,12.7,3.5,12.7,11.4c0,5.6-4.2,8.8-9.4,9.6l8.6,9.2
						c0.7,0.8,1,1.5,1,2.2c0,2-1.6,3.9-3.8,3.9c-0.9,0-2.1-0.4-3-1.3L19.1-47H19v11c0,2.5-1.6,4-3.8,4c-2.2,0-3.8-1.4-3.8-4
						C11.4-36,11.4-64.5,11.4-64.5z M19-52.4h5.3c2.8,0,4.7-1.7,4.7-4.5c0-2.9-1.9-4.5-4.7-4.5H19V-52.4z"/>
					<path id="Shape_5_" d="M45.3-43.4c0.5,3.6,3.5,5.3,7,5.3c3.7,0,6.3-3,8.3-3c1.6,0,3,1.6,3,3.1c0,3.1-6.5,6.2-11.9,6.2
						c-8.2,0-13.7-6-13.7-14C38-53.2,43.4-60,51.1-60c7.9,0,13.1,7.2,13.1,13.2c0,2.2-1,3.3-3.2,3.3L45.3-43.4L45.3-43.4z
						 M56.9-48.3c-0.4-3.2-2.4-5.6-5.9-5.6c-3.3,0-5.4,2.5-5.8,5.6H56.9z"/>
					<path id="Shape_6_" d="M85-51.8c-1.8,0-3.4-1.4-5.8-1.4c-4.2,0-6.2,3.7-6.2,7.5c0,3.6,2.2,7.4,6.2,7.4c1.8,0,4.6-1.5,5.4-1.5
						c1.8,0,3.1,1.4,3.1,3.2c0,3.7-6.3,5-8.9,5c-7.9,0-13.1-6.5-13.1-14c0-7.4,5.4-14.2,13.1-14.2c2.9,0,8.9,1.1,8.9,4.6
						C87.7-53.8,86.6-51.8,85-51.8z"/>
					<path id="Shape_7_" d="M96.2-43.4c0.5,3.6,3.5,5.3,7,5.3c3.7,0,6.3-3,8.3-3c1.6,0,3,1.6,3,3.1c0,3.1-6.5,6.2-11.9,6.2
						c-8.2,0-13.7-6-13.7-14c0-7.4,5.4-14.2,13.1-14.2c7.9,0,13.1,7.2,13.1,13.2c0,2.2-1,3.3-3.2,3.3L96.2-43.4L96.2-43.4z
						 M107.6-48.3c-0.4-3.2-2.4-5.6-5.9-5.6c-3.3,0-5.4,2.5-5.8,5.6H107.6z"/>
					<path id="Shape_8_" d="M125.3-66.5c0,2.3-1.8,4.2-4.1,4.2c-2.2,0-4.1-2-4.1-4.2c0-2.1,1.9-4,4.1-4S125.3-68.7,125.3-66.5z
						 M117.5-55.6c0-2.4,1.5-4,3.7-4s3.7,1.6,3.7,4v19.5c0,2.4-1.5,4-3.7,4s-3.7-1.6-3.7-4V-55.6z"/>
					<path id="Shape_9_" d="M128.9-55.6c0-2.4,1.5-4,3.7-4c2.1,0,3.2,1.1,3.7,3c1.4-2.2,4.2-3.3,7-3.3c7.9,0,11.8,7.4,11.8,14.5
						c0,6.9-4.7,13.7-12.1,13.7c-2.3,0-4.8-0.8-6.7-2.5v8.9c0,2.4-1.5,4-3.7,4c-2.1,0-3.7-1.6-3.7-4V-55.6L128.9-55.6z M141.9-38.4
						c3.8,0,5.7-4,5.7-7.4c0-3.4-1.9-7.5-5.7-7.5c-3.9,0-5.7,3.7-5.7,7.2S137.9-38.4,141.9-38.4z"/>
					<path id="Shape_10_" d="M159.8-52.9h-1.6c-2,0-3.2-1.2-3.2-3.2c0-1.8,1.4-3.2,3.2-3.2h1.6v-4.3c0-2.4,1.5-4,3.7-4
						s3.7,1.6,3.7,4v4.3h2.1c1.9,0,3.5,0.8,3.5,3.2c0,2.3-1.6,3.2-3.5,3.2h-2.1v16.8c0,2.4-1.5,4-3.7,4s-3.7-1.6-3.7-4V-52.9z"/>
					<path id="Shape_11_" d="M188.5-51.4c-1.4,0-4.2-2.1-6.6-2.1c-1.3,0-2.5,0.6-2.5,2.1c0,3.4,12.7,2.9,12.7,11.2
						c0,4.9-4.1,8.6-10.4,8.6c-4.1,0-10.2-2.4-10.2-5.6c0-1.1,1.1-3.3,3.1-3.3c2.8,0,4.1,2.5,7.6,2.5c2.2,0,2.9-0.7,2.9-2.1
						c0-3.3-12.7-2.8-12.7-11.2c0-5.1,4.1-8.5,9.9-8.5c3.6,0,9.2,1.7,9.2,5.3C191.5-53,190.2-51.4,188.5-51.4z"/>
				</g>
				<g id="icon">
					<polygon id="Shape_12_" class="st0" points="-82.1,-25.2 -73.2,-29.3 -63.9,-25.2 -54.7,-29.3 -45.2,-25.2 -45.2,-68.6 
						-82.1,-68.6 					"/>
					
						<linearGradient id="Shape_18_" gradientUnits="userSpaceOnUse" x1="-522.542" y1="-64.4886" x2="-522.542" y2="-63.4906" gradientTransform="matrix(42.1514 0 0 50.325 21962.2773 3174.0864)">
						<stop  offset="0" style="stop-color:#00AFB0"/>
						<stop  offset="1" style="stop-color:#000808"/>
					</linearGradient>
					<path id="Shape_13_" class="st1" d="M-84.7-21v-50.3h42.2v50.2l-12.1-5.3l-9.2,4.2l-9.3-4.1L-84.7-21z M-73.3-32.3l9.4,4.2
						l9.2-4.2l6.8,3v-36.6h-31.5v36.5L-73.3-32.3z"/>
					<polygon id="Shape_14_" class="st0" points="-95.2,-15.7 -86.4,-19.9 -77.1,-15.7 -67.9,-19.9 -58.4,-15.7 -58.4,-59.2 
						-95.2,-59.2 					"/>
					
						<linearGradient id="Shape_19_" gradientUnits="userSpaceOnUse" x1="-522.5428" y1="-64.4896" x2="-522.5428" y2="-63.4917" gradientTransform="matrix(42.1514 0 0 50.325 21949.1113 3183.5415)">
						<stop  offset="0" style="stop-color:#00AFB0"/>
						<stop  offset="1" style="stop-color:#000808"/>
					</linearGradient>
					<path id="Shape_15_" class="st2" d="M-97.9-11.5v-50.4h42.2v50.2L-67.9-17l-9.2,4.2l-9.3-4.2L-97.9-11.5z M-86.5-22.8l9.4,4.2
						l9.2-4.2l6.8,3v-36.7h-31.5V-20L-86.5-22.8z"/>
					<path id="Shape_16_" class="st3" d="M-66.9-43.3h-20c-1.4,0-2.6-1.2-2.6-2.7c0-1.4,1.2-2.7,2.6-2.7h20c1.4,0,2.6,1.2,2.6,2.7
						C-64.2-44.5-65.4-43.3-66.9-43.3z"/>
					<path id="Shape_17_" class="st4" d="M-66.9-31.9h-20c-1.4,0-2.6-1.2-2.6-2.7s1.2-2.7,2.6-2.7h20c1.4,0,2.6,1.2,2.6,2.7
						S-65.4-31.9-66.9-31.9z"/>
				</g>
			</g>
		</g>
	</g>
</g>
</svg>
