<?xml version="1.0" encoding="utf-8"?>
<!-- Generator: Adobe Illustrator 22.0.1, SVG Export Plug-In . SVG Version: 6.00 Build 0)  -->
<svg version="1.1" id="Layer_1" xmlns="http://www.w3.org/2000/svg" xmlns:xlink="http://www.w3.org/1999/xlink" x="0px" y="0px"
	 viewBox="0 0 127 98" style="enable-background:new 0 0 127 98;" xml:space="preserve">
<style type="text/css">
	.st0{fill:url(#SVGID_1_);}
</style>
<title>uber-run-logo</title>
<desc>Created with Sketch.</desc>
<g>
	<g>
		<linearGradient id="SVGID_1_" gradientUnits="userSpaceOnUse" x1="63.5353" y1="0.5372" x2="63.5353" y2="66.3503">
			<stop  offset="0" style="stop-color:#D700D0"/>
			<stop  offset="0.9987" style="stop-color:#0012B9"/>
		</linearGradient>
		<path class="st0" d="M54,66.4H42.3c-1.7,0-3.1-1.4-3.1-3.1V24.6h18v4.3c2.9,0,5.9,0,8.5,0V18.6h-8.5v4.3H39.3l0-1.7
			c0-8.3,7.2-20,20.7-20.7c6.3-0.3,12.2,1.8,16.6,6c4.4,4.2,6.9,10.1,6.9,16.2c0,7-3.2,13.4-8.6,17.6L87,52.6c1.2,1.2,1.2,3.2,0,4.4
			l-8.3,8.3c-1.2,1.2-3.2,1.2-4.4,0L57,48v15.3C57,65,55.7,66.4,54,66.4z M42.5,63h11.2V39.9l22.8,22.8l7.9-7.9l-15-15l1.8-1.1
			c5.5-3.4,8.8-9.4,8.8-15.9c0-5.2-2.1-10.2-5.9-13.8C71.6,6.5,67,3.6,60.1,3.9c-10.5,0.5-16.5,8.9-17.4,15.7h11.1v-1.4
			c0-0.4,0-1.3,0.7-2.1c0.7-0.8,1.7-0.7,2.1-0.7l9.8,0c0.3,0,1.2,0,2,0.7c0.5,0.5,0.7,1.1,0.7,2v11.6c0,0.8-0.2,1.5-0.7,1.9
			c-0.7,0.7-1.7,0.7-2,0.7c-3.1,0-6.6,0-9.9,0c-0.8,0-1.5-0.2-1.9-0.7c-0.5-0.5-0.7-1.1-0.7-1.9V28H42.5V63z"/>
	</g>
	<g>
		<path d="M0.2,77c0-1.6,1-2.5,2.4-2.5S5,75.4,5,77v11.1c0,2.9,1.9,5.2,4.9,5.2c2.9,0,4.9-2.4,4.9-5.2V77c0-1.6,1-2.5,2.4-2.5
			c1.4,0,2.4,0.9,2.4,2.5v11.3c0,5.3-4.4,9.4-9.6,9.4c-5.3,0-9.7-4-9.7-9.4V77z"/>
		<path d="M22.1,75.4c0-1.5,1-2.5,2.3-2.5c1.3,0,2.3,1,2.3,2.5v6.2c1.2-1,2.8-1.6,4.4-1.6c4.9,0,7.4,4.6,7.4,9.1
			c0,4.3-2.9,8.6-7.5,8.6c-1.6,0-3.3-0.7-4.2-2.1c-0.3,1.2-1,1.9-2.3,1.9c-1.3,0-2.3-1-2.3-2.5V75.4z M30.2,93.5
			c2.4,0,3.6-2.5,3.6-4.6c0-2.2-1.2-4.7-3.6-4.7c-2.4,0-3.6,2.3-3.6,4.5S27.7,93.5,30.2,93.5z"/>
		<path d="M44,90.4c0.3,2.3,2.2,3.3,4.3,3.3c2.4,0,4-1.8,5.2-1.8c1,0,1.9,1,1.9,2c0,2-4.1,3.9-7.5,3.9c-5.1,0-8.6-3.7-8.6-8.8
			c0-4.6,3.4-8.9,8.2-8.9c5,0,8.2,4.5,8.2,8.3c0,1.4-0.6,2-2,2H44z M51.2,87.4c-0.3-2-1.5-3.5-3.7-3.5c-2,0-3.4,1.6-3.6,3.5H51.2z"
			/>
		<path d="M57.3,82.5c0-1.5,1.2-2.3,2.4-2.3c1.2,0,2.2,0.4,2.2,1.9h0.1c0.9-1.3,1.8-1.9,3.2-1.9c1.1,0,2.2,0.8,2.2,2.4
			c0,1.5-1.4,1.6-2.7,2.2c-1.4,0.6-2.8,1.2-2.8,3.1v7c0,1.5-1,2.5-2.3,2.5c-1.3,0-2.3-1-2.3-2.5V82.5z"/>
		<path d="M76.6,77.2c0-1.5,0.9-2.5,2.4-2.5h5.6c4.9,0,7.9,2.2,7.9,7.2c0,3.5-2.6,5.5-5.9,6l5.4,5.8c0.4,0.5,0.6,1,0.6,1.4
			c0,1.2-1,2.4-2.4,2.4c-0.6,0-1.3-0.2-1.8-0.8l-7.1-8.5h-0.1v6.9c0,1.6-1,2.5-2.4,2.5s-2.4-0.9-2.4-2.5V77.2z M81.3,84.7h3.3
			c1.7,0,3-1,3-2.8c0-1.8-1.2-2.8-3-2.8h-3.3V84.7z"/>
		<path d="M94.1,82.8c0-1.5,1-2.5,2.3-2.5c1.3,0,2.3,1,2.3,2.5V91c0,1.9,1.4,3,3,3c1.5,0,3-1,3-3v-8.2c0-1.5,1-2.5,2.3-2.5
			c1.3,0,2.3,1,2.3,2.5v8.3c0,4.1-2.7,6.7-7.5,6.7c-4.8,0-7.5-2.6-7.5-6.7V82.8z"/>
		<path d="M111.8,82.8c0-1.5,1-2.5,2.3-2.5c1.2,0,1.9,0.6,2.1,1.7c0.9-1.2,2.3-1.9,4.4-1.9c3.6,0,6.3,2.3,6.3,6.2V95
			c0,1.5-1,2.5-2.3,2.5c-1.3,0-2.3-1-2.3-2.5v-8c0-2.1-1.3-3.1-3-3.1c-1.9,0-2.9,1.4-2.9,3.1v8c0,1.5-1,2.5-2.3,2.5
			c-1.3,0-2.3-1-2.3-2.5V82.8z"/>
	</g>
</g>
</svg>
