<svg xmlns="http://www.w3.org/2000/svg" xmlns:xlink="http://www.w3.org/1999/xlink" viewBox="0 0 617.55 474"><defs><linearGradient id="linear-gradient" x1="308.77" x2="308.77" y2="320.96" gradientUnits="userSpaceOnUse"><stop offset="0" stop-color="#d700d0"/><stop offset="1" stop-color="#0012b9"/></linearGradient></defs><title>uber-run</title><g id="Layer_2" data-name="Layer 2"><g id="Layer_1-2" data-name="Layer 1"><path d="M262,321H205a15.12,15.12,0,0,1-15.1-15.1V117.39h87.58v20.83c14-.08,28.54-.08,41.58,0V88.31H277.47v20.74h-87V100.9c0-40.29,35-97.73,100.71-100.77,30.89-1.44,59.58,9,80.82,29.35a109.52,109.52,0,0,1,33.63,79.09,107.86,107.86,0,0,1-42.13,85.72l59.76,59.77a15.11,15.11,0,0,1,0,21.34l-40.35,40.34a15.11,15.11,0,0,1-21.34,0l-84.41-84.42v74.53A15.11,15.11,0,0,1,262,321Zm-55.85-16.3h54.65V192L372.22,303.37l38.64-38.64-73-73,8.66-5.43a91.57,91.57,0,0,0,42.82-77.76,93.15,93.15,0,0,0-28.61-67.26c-12.73-12.2-35-26.42-68.8-24.84-51.24,2.37-80.4,43.47-84.63,76.34h53.89v-7c-.08-1.8-.16-6.54,3.3-10.12s8.44-3.66,10-3.64h47.85c1.45,0,6.05-.05,9.54,3.44,2.31,2.31,3.47,5.51,3.44,9.52v56.76a12.6,12.6,0,0,1-3.42,9.37c-3.49,3.5-8.14,3.46-9.68,3.45-14.91-.12-32.08-.12-48.32,0q-6.06,0-9.5-3.49a12.31,12.31,0,0,1-3.26-9.25v-8.11h-55Z" style="fill:url(#linear-gradient)"/><path d="M0,373c0-7.74,5-12.08,11.62-12.08S23.25,365.21,23.25,373V427c0,14.26,9.14,25.57,23.86,25.57,14.11,0,23.72-11.93,23.72-25.57V373c0-7.74,5-12.08,11.62-12.08S94.07,365.21,94.07,373v55.33c0,26-21.38,45.72-47,45.72C21.23,474,0,454.63,0,428.28Z"/><path d="M106.46,365.21c0-7.44,4.65-12.4,11.16-12.4s11.16,5,11.16,12.4v30.37A32.33,32.33,0,0,1,150,387.83c24,0,36,22.48,36,44.17,0,21.08-14.26,42-36.73,42-7.6,0-16.28-3.41-20.46-10.23-1.4,5.89-5,9.3-11.16,9.3-6.51,0-11.16-5-11.16-12.4Zm39.83,88.33c11.63,0,17.36-12.09,17.36-22.47,0-10.54-5.73-22.78-17.36-22.78-11.93,0-17.51,11.16-17.51,22S134.05,453.54,146.29,453.54Z"/><path d="M213.39,438.36c1.55,11,10.69,16.11,21.08,16.11,11.46,0,19.37-9,25.26-9,4.8,0,9.14,4.8,9.14,9.6,0,9.61-19.84,18.91-36.42,18.91-25.1,0-41.84-18.29-41.84-42.93,0-22.62,16.43-43.24,40-43.24,24.18,0,40.14,22,40.14,40.61,0,6.66-2.94,9.92-9.76,9.92Zm35-14.88c-1.25-9.77-7.44-17.05-17.83-17.05-9.92,0-16.58,7.59-17.67,17.05Z"/><path d="M278.32,399.92c0-7.44,5.89-11.16,11.47-11.16,5.89,0,10.85,2.17,10.85,9.3H301c4.18-6.2,8.67-9.3,15.65-9.3,5.42,0,10.85,3.88,10.85,11.94,0,7.28-6.67,7.75-13.33,10.84s-13.48,6-13.48,14.88v34.25c0,7.44-4.65,12.4-11.16,12.4s-11.16-5-11.16-12.4Z"/><path d="M372.38,373.88c0-7.43,4.19-12.08,11.93-12.08h27.28c23.87,0,38.59,10.69,38.59,35,0,17.05-12.86,26.81-28.67,29.29l26.35,28.21a10,10,0,0,1,3.09,6.82c0,6-4.8,11.93-11.62,11.93a12,12,0,0,1-9-4l-34.4-41.69h-.31V461c0,7.75-5,12.09-11.63,12.09s-11.62-4.34-11.62-12.09Zm23.25,36.73h16c8.52,0,14.41-5.11,14.41-13.79s-5.89-13.64-14.41-13.64h-16Z"/><path d="M457.92,401.16c0-7.44,4.65-12.4,11.16-12.4s11.16,5,11.16,12.4V441c0,9.3,7,14.41,14.41,14.41s14.42-5.11,14.42-14.41V401.16c0-7.44,4.65-12.4,11.15-12.4s11.16,5,11.16,12.4v40.29c0,19.84-13.17,32.55-36.73,32.55s-36.73-12.71-36.73-32.55Z"/><path d="M544.09,401.16c0-7.44,4.64-12.4,11.15-12.4,5.74,0,9.46,3.1,10.23,8.22,4.34-6.05,11-9.15,21.54-9.15,17.52,0,30.54,11.16,30.54,30.07v42.77c0,7.44-4.65,12.4-11.16,12.4s-11.16-5-11.16-12.4v-38.9c0-10.38-6.51-15.34-14.57-15.34-9.14,0-14.26,6.66-14.26,15.34v38.9c0,7.44-4.65,12.4-11.16,12.4s-11.15-5-11.15-12.4Z"/></g></g></svg>